<svg width="500" height="200" viewBox="0 0 100 100" fill="none" xmlns="http://www.w3.org/2000/svg">
<path d="M49.6492 67.7518V67.6942C49.6876 67.6221 49.7549 67.5788 49.8126 67.5932C50.0913 67.5788 50.3604 67.5788 50.6392 67.5932C50.6969 67.5932 50.7641 67.6221 50.8026 67.6942V67.7518H49.6492Z" fill="#D1EFFA"/>
<path d="M50.8026 67.6942C50.4181 67.6797 50.0336 67.6797 49.6492 67.6942C49.1205 67.6509 48.5919 67.6221 48.0632 67.5644C46.6599 67.4058 45.2662 67.0886 43.9013 66.6128C39.1819 64.9692 35.0393 61.6676 31.4252 56.8665C31.0888 56.4195 30.7716 55.9582 30.4448 55.4968C30.3679 55.3959 30.3007 55.2517 30.2622 55.1075C30.2045 54.9057 30.2334 54.6894 30.3295 54.5308C30.4256 54.3722 30.5794 54.3146 30.714 54.4011C30.8005 54.4587 30.887 54.5164 30.9639 54.5885C34.4145 57.7892 38.1823 60.1249 42.1328 61.509C43.4592 61.9703 44.7952 62.3308 46.1409 62.5903C48.0728 62.9507 50.024 63.0805 51.9656 62.9796C53.0133 62.9363 54.0514 62.7922 55.0894 62.5903C57.5116 62.1289 59.9049 61.3071 62.2214 60.1537C63.4421 59.5482 64.6339 58.8561 65.797 58.0487C65.97 57.9046 66.1814 57.8613 66.3737 57.9334C66.6909 58.0487 66.8831 58.5389 66.8062 59.0147C66.7966 59.0724 66.7774 59.1445 66.7581 59.2022C66.6812 59.4184 66.5755 59.6058 66.4409 59.75C65.3356 61.0476 64.1437 62.1866 62.8846 63.1382C60.5105 64.9404 57.973 66.2236 55.3586 66.9589C53.8495 67.3626 52.3309 67.6077 50.8026 67.6942V67.6942ZM36.5675 38.4695C36.8078 38.2533 37.0577 38.0226 37.3173 37.8207C37.9901 37.3017 38.7398 37.0422 39.4991 37.0999C40.047 37.1431 40.5468 37.3738 40.9313 37.9793C41.2965 38.5416 41.4311 39.2337 41.4695 39.9834C41.4792 40.142 41.4792 40.3006 41.4792 40.4736V47.942C41.4792 48.5907 41.4215 48.6773 40.989 48.6773H39.8163C39.7394 48.6773 39.6625 48.6773 39.5856 48.6628C39.4703 48.6484 39.3742 48.5042 39.355 48.3312C39.3357 48.1726 39.3357 48.014 39.3357 47.8554V41.1801C39.3453 40.9061 39.3261 40.6466 39.2781 40.3871C39.2012 39.9401 38.932 39.623 38.6245 39.5941C38.0574 39.5364 37.4903 39.7095 36.9712 40.0699C36.8943 40.0987 36.8463 40.2141 36.8559 40.3294V47.9131C36.8559 48.0573 36.8559 48.1871 36.8367 48.3312C36.8367 48.5331 36.7309 48.6773 36.5964 48.6773C36.4522 48.6917 36.308 48.6917 36.1542 48.6917H35.1354C34.7797 48.6917 34.7029 48.5619 34.7029 48.0285V41.2089C34.7029 40.9638 34.6932 40.7043 34.6548 40.4592C34.5875 39.969 34.3088 39.623 33.982 39.5941C33.4053 39.5364 32.8189 39.7095 32.2999 40.0843C32.223 40.1132 32.175 40.2429 32.1942 40.3583V48.0429C32.1942 48.5763 32.1173 48.6917 31.7616 48.6917H30.4737C30.1373 48.6917 30.0508 48.5475 30.0508 48.0573V38.0514C30.0508 37.9361 30.0604 37.8207 30.0796 37.7054C30.118 37.5324 30.2334 37.4315 30.3487 37.4315H31.5502C31.7232 37.4315 31.8289 37.5901 31.8866 37.8352C31.9347 38.037 31.9635 38.2244 32.0116 38.4407C32.1077 38.4407 32.1653 38.3398 32.2326 38.2821C32.7613 37.7919 33.3188 37.3738 33.9435 37.2008C34.4241 37.0566 34.9047 37.0566 35.3853 37.2008C35.837 37.345 36.2407 37.7487 36.5003 38.3254C36.5195 38.3686 36.5387 38.3975 36.5579 38.4263C36.5483 38.4407 36.5579 38.4407 36.5675 38.4695V38.4695Z" fill="#00A8E1"/>
<path d="M56.4928 45.6495C56.5504 45.3612 56.6081 45.0873 56.6658 44.7989C57.1079 42.5642 57.5501 40.3438 57.9922 38.1091L58.0499 37.8496C58.0979 37.5901 58.2613 37.4315 58.4343 37.4315H59.8953C60.2606 37.4315 60.3375 37.5901 60.2125 38.1091L59.6358 40.4015C58.9918 42.9102 58.3478 45.4333 57.7038 47.9419C57.6846 48.0285 57.6558 48.115 57.6366 48.2015C57.5693 48.5042 57.3674 48.7061 57.156 48.6772C56.7331 48.6628 56.3101 48.6628 55.8872 48.6772C55.5893 48.6917 55.4162 48.4898 55.3105 48.0861C55.0702 47.1346 54.8203 46.1686 54.58 45.217C54.0033 42.9534 53.417 40.6899 52.8403 38.4119C52.7826 38.2389 52.7442 38.037 52.7153 37.8496C52.6865 37.5612 52.7538 37.417 52.946 37.417C53.4939 37.4026 54.0418 37.417 54.58 37.417C54.8107 37.417 54.9164 37.6477 54.9741 37.9505C55.0798 38.4984 55.1856 39.0607 55.3009 39.6085C55.695 41.6126 56.0795 43.6311 56.4735 45.6351C56.4639 45.6495 56.4735 45.6495 56.4928 45.6495V45.6495Z" fill="#ffffff"/>
<path d="M22.3613 39.0174C22.4286 38.9886 22.4863 38.9309 22.5247 38.8444C22.6977 38.5849 22.8804 38.3398 23.0726 38.1091C23.5724 37.5324 24.1972 37.244 24.8219 37.3161C25.0718 37.3305 25.1584 37.4459 25.1776 37.8063C25.1968 38.2965 25.1872 38.8011 25.1872 39.2913C25.1968 39.4932 25.1872 39.6806 25.168 39.8825C25.1295 40.142 25.0622 40.2429 24.8892 40.2717C24.7547 40.2862 24.6297 40.2717 24.4951 40.2573C23.8512 40.1708 23.2264 40.3583 22.6208 40.661C22.4863 40.7331 22.4863 40.8773 22.4863 41.0359V47.9564C22.4863 48.0861 22.4863 48.2015 22.4767 48.3312C22.4671 48.5187 22.3709 48.6628 22.246 48.6628C22.1787 48.6773 22.1018 48.6773 22.0345 48.6773H20.785C20.7177 48.6773 20.6408 48.6773 20.5735 48.6628C20.4486 48.6484 20.3525 48.4898 20.3429 48.3024C20.3332 48.1871 20.3332 48.0717 20.3332 47.9564V38.1524C20.3332 37.4891 20.3813 37.4171 20.8234 37.4171H21.7462C21.9961 37.4171 22.1114 37.5468 22.1787 37.9073C22.246 38.2677 22.3037 38.6281 22.3613 39.0174V39.0174ZM67.3252 53.6369C67.9596 53.6658 68.5844 53.7234 69.1995 53.9685C69.3726 54.0406 69.5359 54.1271 69.6993 54.2425C69.9204 54.3722 70.0646 54.6894 70.0934 55.0354C70.1319 55.4391 70.1415 55.8573 70.1223 56.2754C69.9973 58.7408 69.4879 61.1197 68.6421 63.2391C68.3345 64.0032 67.9596 64.6953 67.5271 65.3008C67.4406 65.4306 67.3348 65.5315 67.2195 65.5892C67.0369 65.6613 66.9215 65.5171 66.9119 65.2432C66.9215 65.099 66.9408 64.9548 66.9792 64.8106C67.3156 63.4554 67.6424 62.1145 67.9019 60.716C68.0557 59.9519 68.1615 59.1733 68.2287 58.3803C68.248 58.092 68.2576 57.8036 68.2384 57.5153C68.2287 57.0251 68.0173 56.607 67.7001 56.4628C67.4021 56.3186 67.0946 56.2321 66.7774 56.2033C65.8931 56.1456 65.0088 56.2033 64.1341 56.3763L62.9711 56.5926C62.8461 56.607 62.7308 56.5926 62.6635 56.4195C62.5962 56.2465 62.6251 56.0735 62.6924 55.9005C62.7693 55.7419 62.8654 55.5977 62.9807 55.4968C63.692 54.7327 64.4898 54.2713 65.3356 53.9685C65.9892 53.7667 66.6524 53.6658 67.3252 53.6369V53.6369Z" fill="#00A8E1"/>
<path d="M63.2979 43.0544V48.2447C63.2787 48.5331 63.1922 48.6628 62.9999 48.6773C62.4809 48.6917 61.9715 48.6917 61.4524 48.6773C61.2602 48.6773 61.1737 48.5331 61.1545 48.2591C61.1449 48.1726 61.1449 48.0717 61.1449 47.9852V38.0082C61.1545 37.5612 61.2314 37.4315 61.5293 37.4315H62.9134C63.2114 37.4315 63.2979 37.5612 63.2979 38.0082V43.0544Z" fill="#ffffff"/>
<path d="M26.1099 43.0255V37.9073C26.1195 37.5612 26.206 37.4315 26.4367 37.417C26.9365 37.4026 27.4363 37.4026 27.9362 37.417C28.1572 37.417 28.2245 37.518 28.2437 37.8496C28.2533 37.9793 28.2533 38.0947 28.2533 38.2244V47.8266C28.2533 47.9852 28.2437 48.1438 28.2341 48.3024C28.2245 48.4898 28.1284 48.6196 28.0034 48.634C27.9458 48.6484 27.8977 48.6484 27.84 48.6484H26.504C26.4559 48.6484 26.4175 48.6484 26.3694 48.634C26.2349 48.6196 26.1195 48.461 26.1099 48.2591C26.1003 48.1438 26.1003 48.0285 26.1003 47.9131C26.1099 46.3128 26.1099 44.6691 26.1099 43.0255ZM27.2249 32.2555C27.3787 32.2411 27.5325 32.2844 27.6766 32.3564C28.1957 32.616 28.4648 33.2936 28.4167 34.1731C28.3783 34.9228 28.0034 35.5283 27.5036 35.6437C27.2922 35.7013 27.0711 35.7013 26.8596 35.6437C26.3118 35.4851 25.9081 34.8795 25.9465 33.8415C26.0042 32.8178 26.4559 32.2555 27.2249 32.2555Z" fill="#00A8E1"/>
<path d="M62.231 32.2555C62.4232 32.2267 62.6155 32.2844 62.7981 32.3997C63.1729 32.616 63.4325 33.135 63.4517 33.7405C63.5286 35.0526 62.9423 35.7158 62.1637 35.6869C62.058 35.6869 61.9522 35.6581 61.8465 35.6293C61.2506 35.413 60.943 34.7209 61.0007 33.7261C61.0487 32.9332 61.462 32.342 62.0291 32.2699C62.0964 32.2555 62.1637 32.2411 62.231 32.2555V32.2555Z" fill="#ffffff"/>
<path d="M18.9107 41.8433C18.8722 41.0936 18.7377 40.3583 18.5358 39.6806C18.1418 38.4407 17.5362 37.5324 16.6135 37.2152C15.5562 36.8692 14.6046 37.2152 13.7396 38.1812C13.6819 38.2677 13.6146 38.3398 13.5377 38.3975C13.5185 38.383 13.4993 38.3686 13.4993 38.3542C13.4704 38.21 13.4512 38.0658 13.4224 37.9217C13.3455 37.5612 13.2494 37.4315 12.9898 37.4315C12.7015 37.4315 12.4035 37.4459 12.1152 37.4315C11.8941 37.417 11.6923 37.4603 11.5385 37.7198C11.5385 42.766 11.5385 47.8266 11.5481 52.8584C11.673 53.1611 11.8653 53.2188 12.0863 53.2044C12.4324 53.19 12.7784 53.2044 13.1244 53.2044C13.7299 53.2044 13.7299 53.2044 13.7299 52.3105V48.2015C13.7299 48.1005 13.7011 47.9852 13.7684 47.8987C14.249 48.461 14.8353 48.807 15.4408 48.8935C16.2867 49.0233 17.0556 48.7061 17.6996 47.841C18.1706 47.1922 18.5166 46.356 18.6992 45.4333C18.9588 44.251 18.978 43.0544 18.9107 41.8433V41.8433ZM16.6135 44.8277C16.5462 45.2747 16.3924 45.6784 16.1713 45.9811C15.9214 46.2983 15.6139 46.4858 15.2871 46.4858C14.7969 46.529 14.3163 46.3704 13.8837 46.0244C13.778 45.9523 13.7107 45.7937 13.7203 45.6207V43.0111C13.7203 42.146 13.7299 41.281 13.7203 40.4159C13.7107 40.2141 13.7876 40.0411 13.9126 39.969C14.4412 39.5941 14.9891 39.4211 15.5658 39.5941C15.9695 39.6806 16.3155 40.0699 16.4789 40.6322C16.6231 41.0936 16.7096 41.5982 16.7288 42.1028C16.7865 43.0255 16.7865 43.9483 16.6135 44.8277V44.8277Z" fill="#00A8E1"/>
<path d="M88.4423 44.0924C88.4423 44.0924 88.4423 44.078 88.4423 44.0924C88.4423 44.078 88.4423 44.078 88.4423 44.0924ZM88.4519 42.1605V42.2181C88.4135 42.1605 88.3943 42.074 88.4135 42.0019V41.8865C88.4135 41.8865 88.4135 41.8721 88.4231 41.8721H88.4135V41.7279H88.4327C88.4327 41.7135 88.4231 41.7135 88.4231 41.6991C88.4039 41.4252 88.3654 41.1512 88.3174 40.8917C87.9617 38.9886 87.164 37.7342 85.8664 37.244C85.2608 37.0278 84.6457 36.9989 84.0305 37.1431C82.7329 37.4315 81.8006 38.4695 81.3488 40.315C80.9067 42.074 80.9163 44.0059 81.3584 45.7649C81.7429 47.3653 82.5119 48.3745 83.6172 48.7926C84.2035 49.0089 84.8187 49.0665 85.4242 48.9368C87.4427 48.5763 88.2789 46.2839 88.4135 44.2943H88.4039V44.0924C88.3943 44.0059 88.3847 43.9338 88.4423 43.8762V43.905C88.4423 43.8906 88.4519 43.8618 88.4615 43.8473V42.1893C88.4615 42.1749 88.4519 42.1749 88.4519 42.1605V42.1605ZM86.1451 44.8998C86.0874 45.2026 86.0009 45.4765 85.876 45.7361C85.6645 46.183 85.3281 46.4714 84.9629 46.5146C84.7802 46.5434 84.5976 46.5434 84.415 46.4858C84.0113 46.3704 83.6749 45.9667 83.5115 45.4044C83.3673 44.9575 83.2808 44.4673 83.252 43.9771C83.2039 43.1265 83.1943 42.2758 83.3289 41.4396C83.3769 41.108 83.473 40.7764 83.5884 40.488C83.7998 39.969 84.1651 39.6374 84.5688 39.5941C84.7514 39.5653 84.934 39.5653 85.1166 39.623C85.5011 39.7383 85.8183 40.1132 85.9913 40.6466C86.1547 41.1512 86.2508 41.7135 86.2701 42.2758C86.2797 42.5353 86.2893 42.7948 86.2797 43.0544C86.3085 43.6887 86.2605 44.3087 86.1451 44.8998V44.8998ZM71.6025 32.3564H70.2664C69.9012 32.3564 69.8339 32.4574 69.8339 33.0052V37.6766C69.8339 37.7775 69.8627 37.8784 69.8147 37.9793C69.7282 37.9649 69.6801 37.8784 69.6128 37.8207C68.6132 36.9413 67.5655 36.7827 66.5082 37.518C65.7681 38.037 65.3068 38.9742 65.0088 40.0843C64.7204 41.1512 64.6532 42.2758 64.6724 43.4148C64.6724 44.4817 64.8358 45.5342 65.153 46.4858C65.5182 47.5383 66.0469 48.3457 66.8158 48.6917C67.8635 49.1819 68.8439 48.9368 69.7378 47.942C69.8051 47.8843 69.8435 47.7834 69.93 47.7545C69.9781 47.9131 70.0165 48.0861 70.0358 48.2591C70.0742 48.4898 70.2088 48.6484 70.3722 48.6484H70.6029C70.9489 48.6484 71.2853 48.6628 71.6217 48.6484C71.8908 48.6484 71.9677 48.5187 71.9773 48.1006V32.9043C71.9677 32.4574 71.8908 32.3564 71.6025 32.3564V32.3564ZM69.8435 42.9679V45.5919C69.8627 45.7649 69.7955 45.9235 69.6897 45.9956C69.2284 46.3848 68.6997 46.5434 68.1807 46.4281C67.7385 46.356 67.3541 45.9523 67.1522 45.3612C66.9984 44.8998 66.9119 44.4096 66.8831 43.905C66.8062 42.9967 66.8543 42.074 66.9984 41.1945C67.0465 40.9494 67.1042 40.7187 67.1907 40.488C67.3925 39.9257 67.777 39.5653 68.1999 39.522C68.7093 39.4499 69.2188 39.5941 69.6801 39.9113C69.7955 39.969 69.8627 40.142 69.8531 40.3294C69.8339 41.2233 69.8435 42.0884 69.8435 42.9679V42.9679Z" fill="#ffffff"/>
<path d="M44.9875 43.9627C45.7083 44.1645 46.4485 44.1789 47.1693 44.0059C47.5923 43.9194 47.996 43.732 48.3708 43.4292C48.8033 43.0544 49.1205 42.5353 49.2551 41.8144C49.5915 39.9978 49.0725 38.1668 47.8133 37.4891C47.1982 37.1864 46.5446 37.0854 45.9006 37.2152C44.3819 37.4747 43.3919 38.7291 42.9402 40.9061C42.623 42.3911 42.6614 43.905 42.9209 45.4044C43.2573 47.322 44.1032 48.461 45.3815 48.8647C46.112 49.1098 46.8521 49.0665 47.5826 48.8935C47.9671 48.7926 48.3516 48.6484 48.7168 48.4321C48.9379 48.3024 49.0532 48.1005 49.0436 47.7257C49.034 47.3797 49.0436 47.0192 49.0436 46.6588C49.0436 46.2262 48.9283 46.0965 48.6496 46.1974C48.3708 46.2983 48.1017 46.3848 47.8229 46.4713C47.227 46.6588 46.6119 46.6588 46.0159 46.5002C45.1989 46.2551 44.6703 45.2026 44.7183 43.905C44.8048 43.9194 44.901 43.9338 44.9875 43.9627V43.9627ZM44.7472 41.7568C44.776 41.4107 44.8433 41.0791 44.9298 40.7619C45.2181 39.7095 45.8237 39.349 46.4388 39.4067C46.6119 39.4211 46.7849 39.4788 46.9483 39.5797C47.1982 39.7383 47.3616 40.0843 47.3904 40.488C47.4192 40.7331 47.4096 40.9926 47.3616 41.2377C47.2462 41.7568 46.9675 41.973 46.6311 42.074C46.4292 42.146 46.2178 42.1749 46.0063 42.146C45.6315 42.146 45.247 42.1028 44.8721 42.0163C44.7279 41.9874 44.7279 41.9874 44.7472 41.7568V41.7568Z" fill="#00A8E1"/>
<path d="M77.408 44.1068C77.9655 44.0492 78.523 43.8906 79.0228 43.4869C79.5322 43.112 79.8878 42.4056 79.9936 41.5693C80.0608 41.0503 80.0608 40.5024 79.9839 39.9834C79.7821 38.6858 79.2342 37.8784 78.4076 37.4603C77.9463 37.244 77.4561 37.1575 76.9755 37.1864C75.3607 37.244 74.1304 38.4695 73.6306 40.8917C73.2942 42.4921 73.3422 44.1213 73.669 45.7216C74.0054 47.3652 74.7744 48.3601 75.8701 48.807C76.3411 48.98 76.8313 49.0521 77.3119 49.0233C78.0135 49.0089 78.7152 48.807 79.3784 48.4322C79.6571 48.2736 79.7244 48.1294 79.7244 47.6824V46.6444C79.7148 46.2262 79.5995 46.0821 79.3207 46.183C79.1093 46.2695 78.9074 46.3416 78.696 46.4137C78.052 46.6444 77.3792 46.6876 76.7256 46.5146C76.072 46.3272 75.6298 45.7649 75.4568 44.7845C75.4087 44.4961 75.3703 44.2078 75.3511 43.905C75.3991 43.905 75.4472 43.905 75.4856 43.9338C76.12 44.1068 76.764 44.1789 77.408 44.1068V44.1068ZM75.3991 41.8C75.4664 41.2377 75.5529 40.6899 75.7836 40.2285C76.1392 39.522 76.6294 39.3202 77.1869 39.4067C77.235 39.4067 77.2734 39.4355 77.3215 39.4355C77.9943 39.5941 78.1577 40.4015 78.0328 41.1801C77.9366 41.7568 77.6195 41.973 77.2638 42.074C77.0716 42.1316 76.8697 42.1605 76.6679 42.146C76.2738 42.1316 75.8893 42.0884 75.5049 42.0019C75.4184 41.9875 75.3799 41.9298 75.3991 41.8V41.8Z" fill="#ffffff"/>
</svg>
